<mxfile host="65bd71144e">
    <diagram id="PTAgkSpfD-r4-lN5cE4J" name="Page-1">
        <mxGraphModel dx="1739" dy="1518" grid="1" gridSize="10" guides="1" tooltips="1" connect="1" arrows="1" fold="1" page="1" pageScale="1" pageWidth="850" pageHeight="1100" background="none" math="0" shadow="0">
            <root>
                <mxCell id="0"/>
                <mxCell id="1" parent="0"/>
                <mxCell id="11" style="edgeStyle=none;html=1;exitX=0.5;exitY=0;exitDx=0;exitDy=0;entryX=0.058;entryY=0.794;entryDx=0;entryDy=0;entryPerimeter=0;rounded=1;" parent="1" source="2" target="5" edge="1">
                    <mxGeometry relative="1" as="geometry"/>
                </mxCell>
                <mxCell id="40" style="edgeStyle=none;html=1;exitX=0;exitY=0;exitDx=0;exitDy=0;entryX=1;entryY=1;entryDx=0;entryDy=0;" edge="1" parent="1" source="2" target="8">
                    <mxGeometry relative="1" as="geometry">
                        <mxPoint x="670" y="110" as="targetPoint"/>
                        <Array as="points">
                            <mxPoint x="70" y="85"/>
                            <mxPoint x="90" y="20"/>
                            <mxPoint x="120"/>
                            <mxPoint x="160" y="-30"/>
                            <mxPoint x="200" y="-40"/>
                            <mxPoint x="300" y="-70"/>
                            <mxPoint x="380" y="-90"/>
                            <mxPoint x="430" y="-100"/>
                            <mxPoint x="570" y="-100"/>
                            <mxPoint x="700" y="-80"/>
                            <mxPoint x="750" y="-50"/>
                            <mxPoint x="750" y="-20"/>
                            <mxPoint x="770" y="20"/>
                            <mxPoint x="750" y="80"/>
                            <mxPoint x="710" y="110"/>
                            <mxPoint x="660" y="120"/>
                            <mxPoint x="620" y="130"/>
                            <mxPoint x="590" y="130"/>
                        </Array>
                    </mxGeometry>
                </mxCell>
                <mxCell id="2" value="" style="ellipse;whiteSpace=wrap;html=1;fillColor=#60a917;fontColor=#ffffff;strokeColor=#2D7600;rounded=1;" parent="1" vertex="1">
                    <mxGeometry x="50" y="170" width="80" height="70" as="geometry"/>
                </mxCell>
                <mxCell id="12" style="edgeStyle=none;html=1;exitX=1;exitY=0.5;exitDx=0;exitDy=0;entryX=0;entryY=0.5;entryDx=0;entryDy=0;rounded=1;" parent="1" source="5" target="7" edge="1">
                    <mxGeometry relative="1" as="geometry"/>
                </mxCell>
                <mxCell id="5" value="" style="ellipse;whiteSpace=wrap;html=1;fillColor=#d80073;fontColor=#ffffff;strokeColor=#A50040;rounded=1;" parent="1" vertex="1">
                    <mxGeometry x="190" y="50" width="80" height="70" as="geometry"/>
                </mxCell>
                <mxCell id="13" style="edgeStyle=none;html=1;exitX=1;exitY=0.5;exitDx=0;exitDy=0;entryX=0;entryY=0.5;entryDx=0;entryDy=0;rounded=1;" parent="1" source="7" target="8" edge="1">
                    <mxGeometry relative="1" as="geometry"/>
                </mxCell>
                <mxCell id="7" value="" style="ellipse;whiteSpace=wrap;html=1;fillColor=#d80073;fontColor=#ffffff;strokeColor=#A50040;rounded=1;" parent="1" vertex="1">
                    <mxGeometry x="345" y="50" width="80" height="70" as="geometry"/>
                </mxCell>
                <mxCell id="8" value="" style="ellipse;whiteSpace=wrap;html=1;fillColor=#00A205;fontColor=#ffffff;strokeColor=#6F0000;rounded=1;gradientColor=#FF3399;gradientDirection=east;" parent="1" vertex="1">
                    <mxGeometry x="480" y="50" width="80" height="70" as="geometry"/>
                </mxCell>
                <mxCell id="20" value="&lt;font style=&quot;font-size: 18px;&quot;&gt;Main Truth&lt;/font&gt;" style="text;html=1;align=center;verticalAlign=middle;whiteSpace=wrap;rounded=1;" parent="1" vertex="1">
                    <mxGeometry x="-30" y="190" width="250" height="30" as="geometry"/>
                </mxCell>
                <mxCell id="24" value="&lt;font style=&quot;font-size: 18px;&quot;&gt;Branch 1&lt;/font&gt;" style="text;html=1;align=center;verticalAlign=middle;whiteSpace=wrap;rounded=1;" parent="1" vertex="1">
                    <mxGeometry x="185" y="70" width="90" height="30" as="geometry"/>
                </mxCell>
                <mxCell id="25" value="&lt;font style=&quot;font-size: 18px;&quot;&gt;Branch 1&lt;/font&gt;" style="text;html=1;align=center;verticalAlign=middle;whiteSpace=wrap;rounded=1;" parent="1" vertex="1">
                    <mxGeometry x="345" y="70" width="90" height="30" as="geometry"/>
                </mxCell>
                <mxCell id="43" style="edgeStyle=none;html=1;exitX=1;exitY=0.5;exitDx=0;exitDy=0;entryX=0;entryY=0.5;entryDx=0;entryDy=0;fontSize=18;" edge="1" parent="1" source="26" target="41">
                    <mxGeometry relative="1" as="geometry"/>
                </mxCell>
                <mxCell id="26" value="&lt;font style=&quot;font-size: 18px;&quot;&gt;Branch 1&lt;/font&gt;" style="text;html=1;align=center;verticalAlign=middle;whiteSpace=wrap;rounded=1;" parent="1" vertex="1">
                    <mxGeometry x="475" y="70" width="90" height="30" as="geometry"/>
                </mxCell>
                <mxCell id="30" value="Commit 2" style="text;html=1;strokeColor=none;fillColor=none;align=center;verticalAlign=middle;whiteSpace=wrap;rounded=1;labelBackgroundColor=none;fontSize=18;" parent="1" vertex="1">
                    <mxGeometry x="330" y="-10" width="100" height="30" as="geometry"/>
                </mxCell>
                <mxCell id="31" value="Commit 1" style="text;html=1;strokeColor=none;fillColor=none;align=center;verticalAlign=middle;whiteSpace=wrap;rounded=1;labelBackgroundColor=none;fontSize=18;" parent="1" vertex="1">
                    <mxGeometry x="180" width="100" height="30" as="geometry"/>
                </mxCell>
                <mxCell id="32" value="Commit 3" style="text;html=1;strokeColor=none;fillColor=none;align=center;verticalAlign=middle;whiteSpace=wrap;rounded=1;labelBackgroundColor=none;fontSize=18;" parent="1" vertex="1">
                    <mxGeometry x="465" width="100" height="30" as="geometry"/>
                </mxCell>
                <mxCell id="41" value="&lt;font style=&quot;font-size: 18px;&quot;&gt;NEW MAIN &lt;br&gt;BRANCH&lt;/font&gt;" style="text;html=1;strokeColor=none;fillColor=none;align=center;verticalAlign=middle;whiteSpace=wrap;rounded=0;" vertex="1" parent="1">
                    <mxGeometry x="590" y="70" width="105" height="30" as="geometry"/>
                </mxCell>
                <mxCell id="44" value="" style="rounded=0;whiteSpace=wrap;html=1;fontSize=18;fillColor=#1ba1e2;gradientDirection=east;fontColor=#ffffff;strokeColor=#006EAF;" vertex="1" parent="1">
                    <mxGeometry x="50" y="250" width="70" height="30" as="geometry"/>
                </mxCell>
                <mxCell id="50" style="edgeStyle=none;html=1;exitX=1;exitY=0.5;exitDx=0;exitDy=0;entryX=0;entryY=0.5;entryDx=0;entryDy=0;fontSize=18;" edge="1" parent="1" source="46" target="48">
                    <mxGeometry relative="1" as="geometry"/>
                </mxCell>
                <mxCell id="46" value="Head" style="text;html=1;strokeColor=none;fillColor=none;align=center;verticalAlign=middle;whiteSpace=wrap;rounded=0;fontSize=18;" vertex="1" parent="1">
                    <mxGeometry x="55" y="250" width="60" height="30" as="geometry"/>
                </mxCell>
                <mxCell id="47" value="" style="rounded=0;whiteSpace=wrap;html=1;fontSize=18;fillColor=#1ba1e2;gradientDirection=east;fontColor=#ffffff;strokeColor=#006EAF;" vertex="1" parent="1">
                    <mxGeometry x="485" y="130" width="70" height="30" as="geometry"/>
                </mxCell>
                <mxCell id="48" value="Head" style="text;html=1;strokeColor=none;fillColor=none;align=center;verticalAlign=middle;whiteSpace=wrap;rounded=0;fontSize=18;" vertex="1" parent="1">
                    <mxGeometry x="490" y="130" width="60" height="30" as="geometry"/>
                </mxCell>
                <mxCell id="51" value="Head shifted from here to there&lt;br&gt;" style="text;html=1;strokeColor=none;fillColor=none;align=center;verticalAlign=middle;whiteSpace=wrap;rounded=0;fontSize=18;rotation=-15;" vertex="1" parent="1">
                    <mxGeometry x="140" y="170" width="340" height="30" as="geometry"/>
                </mxCell>
            </root>
        </mxGraphModel>
    </diagram>
</mxfile>